<?xml version="1.0" ?><svg viewBox="0 0 60 60" xmlns="http://www.w3.org/2000/svg"><defs><style>.a{fill:#67b4ed;}.b{fill:#342c5a;}.c{fill:#b8dbf6;}.d{fill:#4f5564;}.e{fill:#f2562f;}.f{fill:#f57c62;}.g{fill:#fdd303;}.h{fill:#fedf66;}.i{fill:#77d95c;}.j{fill:#95e081;}</style></defs><title/><path class="a" d="M60,30A29.98814,29.98814,0,0,1,31.5,59.96c-.49.03-1,.04-1.5.04s-1.01-.01-1.5-.04A29.99877,29.99877,0,1,1,60,30Z"/><path class="b" d="M31.5,55v4.96c-.49.03-1,.04-1.5.04s-1.01-.01-1.5-.04V55Z"/><path class="c" d="M58,25.5a4.47625,4.47625,0,0,0-6.404-4.06366A5.49576,5.49576,0,0,0,41.2124,22H40v8H54v-.05042A4.4847,4.4847,0,0,0,58,25.5Z"/><path class="c" d="M19.97479,39c.01489-.16492.02521-.33118.02521-.5A5.4975,5.4975,0,0,0,9.207,37.02087C9.137,37.01721,9.07092,37,9,37a4,4,0,0,0,0,8H21V39Z"/><rect class="d" height="53" rx="10.49999" ry="10.49999" width="21" x="19.5" y="3"/><path class="e" d="M36.5,13.5a6.5,6.5,0,1,1-7.23-6.46A5.85208,5.85208,0,0,1,30,7,6.49977,6.49977,0,0,1,36.5,13.5Z"/><path class="f" d="M36.5,13.5a6.50026,6.50026,0,0,1-1.77,4.46A5.84035,5.84035,0,0,1,34,18,6.50116,6.50116,0,0,1,29.27,7.04,5.85208,5.85208,0,0,1,30,7,6.49977,6.49977,0,0,1,36.5,13.5Z"/><path class="g" d="M36.5,29.5a6.5,6.5,0,1,1-7.23-6.46A5.85208,5.85208,0,0,1,30,23,6.49977,6.49977,0,0,1,36.5,29.5Z"/><path class="h" d="M36.5,29.5a6.50026,6.50026,0,0,1-1.77,4.46A5.84035,5.84035,0,0,1,34,34a6.50116,6.50116,0,0,1-4.73-10.96A5.85208,5.85208,0,0,1,30,23,6.49977,6.49977,0,0,1,36.5,29.5Z"/><path class="i" d="M36.5,45.5a6.5,6.5,0,1,1-7.23-6.46A5.85208,5.85208,0,0,1,30,39,6.49977,6.49977,0,0,1,36.5,45.5Z"/><path class="j" d="M36.5,45.5a6.50026,6.50026,0,0,1-1.77,4.46A5.84035,5.84035,0,0,1,34,50a6.50116,6.50116,0,0,1-4.73-10.96A5.85208,5.85208,0,0,1,30,39,6.49977,6.49977,0,0,1,36.5,45.5Z"/></svg>